<svg xmlns="http://www.w3.org/2000/svg"
     viewBox="0 0 16.5 11.5">
  <g transform="translate(-47.360417,-107.60991)">
    <g transform="matrix(0.26458333,0,0,0.26458333,47.360417,107.42258)">

      <path
        fill="currentColor"
        d="m 49.8758,31.5908 v -2.4209 c 0,-0.4496 -0.757,-0.8787 -2.1163,-1.2656 l 0.0327,-3.0132 C 47.7923,20.2493 46.3521,15.7197 43.667,11.916 40.9818,8.11219 37.1813,5.21807 32.7804,3.62569 L 32.6833,3.02154 C 32.6332,2.69858 32.4917,2.39632 32.2752,2.14976 32.0588,1.9032 31.7763,1.72244 31.4604,1.62842 c -4.2193,-1.227215 -8.7057,-1.227215 -12.9249,0 -0.3168,0.09307 -0.6003,0.27329 -0.8178,0.51971 -0.2174,0.24642 -0.3598,0.54891 -0.4106,0.87233 L 17.2144,3.58354 C 12.7867,5.16091 8.95839,8.05377 6.25211,11.8671 3.54582,15.6805 2.09351,20.2284 2.09347,24.89 v 3.0262 C 0.752762,28.302 0.00658807,28.7267 0.00658807,29.1731 V 31.594 C -0.0147762,31.7358 0.0162113,31.8805 0.0938598,32.0015 0.760816,31.5081 1.52672,31.1621 2.34002,30.9866 c 2.07257,-0.5002 4.17924,-0.8498 6.3032,-1.0461 0.59549,-0.0671 1.19858,-0.0076 1.76898,0.1747 0.5704,0.1823 1.0949,0.4831 1.5386,0.8823 1.641,1.4874 3.7845,2.3125 6.0087,2.3128 H 31.923 c 2.2244,1e-4 4.3682,-0.8255 6.0086,-2.3139 0.4428,-0.4011 0.9669,-0.704 1.5373,-0.8883 0.5704,-0.1844 1.174,-0.2459 1.7703,-0.1806 2.1235,0.1949 4.2298,0.5432 6.3021,1.0419 0.7708,0.146 1.4985,0.4618 2.1295,0.924 0.036,0.0357 0.0785,0.0659 0.109,0.0995 0.0787,-0.1187 0.1127,-0.2611 0.096,-0.4021 z" />

      <g fill="#ffffff">
        <path d="m 24.9391,7.81543 -5.3453,9.02237 5.3453,3.2888 V 7.81867 Z" />
        <path d="M 24.9414,7.81934 V 20.1251 l 5.3454,-3.2845 z" />
        <path d="m 24.9414,21.9123 v 4.2907 c 0.1004,-0.1427 5.3454,-7.5806 5.3454,-7.5839 z" />
        <path d="m 24.9411,21.9137 -5.3454,-3.2877 5.3454,7.5805 v -4.295 z" />
      </g>
    </g>
  </g>
</svg>