<?xml version="1.0" encoding="UTF-8" standalone="no"?>
<svg
   viewBox="0 -5 49.879951 47.5"
   version="1.1"
   id="svg6"
   sodipodi:docname="hardhat.svg"
   width="49.879951"
   height="47.5"
   inkscape:export-filename="hardhat.svg"
   inkscape:export-xdpi="300"
   inkscape:export-ydpi="300"
   xmlns:inkscape="http://www.inkscape.org/namespaces/inkscape"
   xmlns:sodipodi="http://sodipodi.sourceforge.net/DTD/sodipodi-0.dtd"
   xmlns="http://www.w3.org/2000/svg"
   xmlns:svg="http://www.w3.org/2000/svg">
  <sodipodi:namedview
     id="namedview6"
     pagecolor="#ffffff"
     bordercolor="#000000"
     borderopacity="0.25"
     inkscape:showpageshadow="true"
     inkscape:pageopacity="0.0"
     inkscape:pagecheckerboard="false"
     inkscape:deskcolor="#d1d1d1"
     inkscape:lockguides="false" />
  <defs
     id="defs4">
    <!-- El logo de ETH recorta el casco (queda transparente) -->
    <mask
       id="hardhat-eth-cutout">
      <rect
         x="0"
         y="0"
         width="100%"
         height="100%"
         fill="#ffffff"
         id="rect1" />
      <g
         fill="#000000"
         id="g4">
        <path
           d="m 24.9391,7.81543 -5.3453,9.02237 5.3453,3.2888 z"
           id="path1" />
        <path
           d="M 24.9414,7.81934 V 20.1251 l 5.3454,-3.2845 z"
           id="path2" />
        <path
           d="m 24.9414,21.9123 v 4.2907 c 0.1004,-0.1427 5.3454,-7.5806 5.3454,-7.5839 z"
           id="path3" />
        <path
           d="m 24.9411,21.9137 -5.3454,-3.2877 5.3454,7.5805 z"
           id="path4" />
      </g>
    </mask>
  </defs>
  <!-- Casco original completo (cúpula + base) en un solo color -->
  <g
     fill="currentColor"
     mask="url(#hardhat-eth-cutout)"
     id="g6">
    <!-- Cúpula del casco (path8) -->
    <path
       d="m 49.8758,31.5908 v -2.4209 c 0,-0.4496 -0.757,-0.8787 -2.1163,-1.2656 l 0.0327,-3.0132 C 47.7923,20.2493 46.3521,15.7197 43.667,11.916 40.9818,8.11219 37.1813,5.21807 32.7804,3.62569 L 32.6833,3.02154 C 32.6332,2.69858 32.4917,2.39632 32.2752,2.14976 32.0588,1.9032 31.7763,1.72244 31.4604,1.62842 c -4.2193,-1.227215 -8.7057,-1.227215 -12.9249,0 -0.3168,0.09307 -0.6003,0.27329 -0.8178,0.51971 -0.2174,0.24642 -0.3598,0.54891 -0.4106,0.87233 L 17.2144,3.58354 C 12.7867,5.16091 8.95839,8.05377 6.25211,11.8671 3.54582,15.6805 2.09351,20.2284 2.09347,24.89 v 3.0262 C 0.752762,28.302 0.00658807,28.7267 0.00658807,29.1731 V 31.594 C -0.0147762,31.7358 0.0162113,31.8805 0.0938598,32.0015 0.760816,31.5081 1.52672,31.1621 2.34002,30.9866 c 2.07257,-0.5002 4.17924,-0.8498 6.3032,-1.0461 0.59549,-0.0671 1.19858,-0.0076 1.76898,0.1747 0.5704,0.1823 1.0949,0.4831 1.5386,0.8823 1.641,1.4874 3.7845,2.3125 6.0087,2.3128 H 31.923 c 2.2244,1e-4 4.3682,-0.8255 6.0086,-2.3139 0.4428,-0.4011 0.9669,-0.704 1.5373,-0.8883 0.5704,-0.1844 1.174,-0.2459 1.7703,-0.1806 2.1235,0.1949 4.2298,0.5432 6.3021,1.0419 0.7708,0.146 1.4985,0.4618 2.1295,0.924 0.036,0.0357 0.0785,0.0659 0.109,0.0995 0.0787,-0.1187 0.1127,-0.2611 0.096,-0.4021 z"
       id="path5" />
    <!-- Base / parte de abajo del casco (path11) -->
    <path
       d="m 47.5415,30.9784 c -2.0726,-0.5002 -4.1792,-0.8499 -6.3032,-1.0462 -0.5959,-0.0662 -1.1991,-0.0057 -1.7695,0.1776 -0.5704,0.1832 -1.0948,0.4848 -1.5381,0.8848 -1.6406,1.488 -3.7843,2.3132 -6.0086,2.3128 H 17.964 c -2.2233,-4e-4 -4.3659,-0.825 -6.0065,-2.3117 -0.4424,-0.4017 -0.9664,-0.7051 -1.5369,-0.8898 -0.57043,-0.1847 -1.17414,-0.2465 -1.77065,-0.1813 -2.12394,0.196 -4.2306,0.5453 -6.30321,1.0451 -0.81255,0.1777 -1.578004,0.5235 -2.246154,1.0149 1.059264,1.6071 11.781714,3.2942 24.846314,3.2942 13.0645,0 23.7815,-1.6925 24.844,-3.2931 -0.037,-0.0325 -0.0785,-0.0638 -0.109,-0.0984 -0.6388,-0.4526 -1.369,-0.7627 -2.1404,-0.9089 z"
       id="path6" />
  </g>
</svg>
