<?xml version="1.0" encoding="UTF-8" standalone="no"?>
<svg
   viewBox="0 0 49.879952 44"
   version="1.1"
   id="svg5"
   sodipodi:docname="hardhat.svg"
   inkscape:version="1.3.2 (091e20e, 2023-11-25)"
   xmlns:inkscape="http://www.inkscape.org/namespaces/inkscape"
   xmlns:sodipodi="http://sodipodi.sourceforge.net/DTD/sodipodi-0.dtd"
   xmlns="http://www.w3.org/2000/svg"
   xmlns:svg="http://www.w3.org/2000/svg">
  <defs
     id="defs5" />
  <sodipodi:namedview
     id="namedview5"
     pagecolor="#ffffff"
     bordercolor="#000000"
     borderopacity="0.25"
     inkscape:showpageshadow="2"
     inkscape:pageopacity="0.0"
     inkscape:pagecheckerboard="0"
     inkscape:deskcolor="#d1d1d1"
     inkscape:zoom="12.048929"
     inkscape:cx="24.939976"
     inkscape:cy="22.035153"
     inkscape:window-width="1392"
     inkscape:window-height="1212"
     inkscape:window-x="2240"
     inkscape:window-y="25"
     inkscape:window-maximized="0"
     inkscape:current-layer="svg5" />
  <path
     fill="currentColor"
     d="m 49.8758,35.364517 v -2.4209 c 0,-0.4496 -0.757,-0.8787 -2.1163,-1.2656 l 0.0327,-3.0132 c 10e-5,-4.6418 -1.4401,-9.1714 -4.1252,-12.9751 C 40.9818,11.885908 37.1813,8.9917873 32.7804,7.3994074 l -0.0971,-0.60415 c -0.0501,-0.32296 -0.1916,-0.6252201 -0.4081,-0.87178 -0.2164,-0.24656 -0.4989,-0.4273201 -0.8148,-0.52134 -4.2193,-1.227215 -8.7057,-1.227215 -12.9249,0 -0.3168,0.09307 -0.6003,0.27329 -0.8178,0.51971 -0.2174,0.24642 -0.3598,0.54891 -0.4106,0.87233 l -0.0927,0.56308 C 12.7867,8.9346273 8.95839,11.827488 6.25211,15.640817 c -2.70629,3.8134 -4.1586,8.3613 -4.15864,13.0229 v 3.0262 c -1.34070798,0.3858 -2.08688191,0.8105 -2.08688191,1.2569 v 2.4209 c -0.02136427,0.1418 0.00962323,0.2865 0.08727173,0.4075 0.6669562,-0.4934 1.43286018,-0.8394 2.24616018,-1.0149 2.07257,-0.5002 4.17924,-0.8498 6.3032,-1.0461 0.59549,-0.0671 1.19858,-0.0066 1.76898,0.1757 0.5704,0.1823 1.0949,0.4831 1.5386,0.8823 1.641,1.4874 3.7845,2.3125 6.0087,2.3128 H 31.923 c 2.2244,10e-5 4.3682,-0.8255 6.0086,-2.3139 0.4428,-0.4011 0.9669,-0.704 1.5373,-0.8883 0.5704,-0.1844 1.174,-0.2459 1.7703,-0.1806 2.1235,0.1949 4.2298,0.5432 6.3021,1.0419 0.7708,0.146 1.4985,0.4618 2.1295,0.924 0.036,0.0357 0.0785,0.0659 0.109,0.0995 0.0787,-0.1187 0.1127,-0.2611 0.096,-0.4021 z"
     id="path1" />
  <g
     fill="#ffffff"
     id="g5"
     transform="translate(0,4.4817261)">
    <path
       d="m 24.9391,7.81543 -5.3453,9.02237 5.3453,3.2888 z"
       id="path2" />
    <path
       d="M 24.9414,7.81934 V 20.1251 l 5.3454,-3.2845 z"
       id="path3" />
    <path
       d="m 24.9414,21.9123 v 4.2907 c 0.1004,-0.1427 5.3454,-7.5806 5.3454,-7.5839 z"
       id="path4" />
    <path
       d="m 24.9411,21.9137 -5.3454,-3.2877 5.3454,7.5805 z"
       id="path5" />
  </g>
</svg>
