<svg width="32" height="18" viewBox="0 0 32 18" fill="none" xmlns="http://www.w3.org/2000/svg">
<path d="M14.582 1.49994C18.1028 1.49994 20.957 4.35412 20.957 7.87494C20.957 9.36527 20.4438 10.7347 19.5869 11.8203L22.9863 15.2197L23.0381 15.2763C23.2783 15.5709 23.2609 16.0056 22.9863 16.2802C22.7117 16.5548 22.277 16.5722 21.9824 16.332L21.9258 16.2802L18.5264 12.8808C17.441 13.7372 16.0719 14.2499 14.582 14.2499C11.0612 14.2499 8.20703 11.3958 8.20703 7.87494C8.20703 4.35412 11.0612 1.49994 14.582 1.49994ZM14.582 2.99994C11.8896 2.99994 9.70703 5.18255 9.70703 7.87494C9.70703 10.5673 11.8896 12.7499 14.582 12.7499C15.9245 12.7499 17.1399 12.2069 18.0215 11.329C18.0237 11.3267 18.026 11.3245 18.0283 11.3222C18.0308 11.3198 18.0327 11.3168 18.0352 11.3144C18.9133 10.4327 19.457 9.21766 19.457 7.87494C19.457 5.18255 17.2744 2.99994 14.582 2.99994Z" fill="white"/>
</svg>
