<svg width="15" height="15" viewBox="0 0 15 15" xmlns="http://www.w3.org/2000/svg">
  <path
    d="M5.53589 0.750031C5.18228 1.92008 5.15269 3.16414 5.4503 4.34967C5.74791 5.5352 6.36155 6.61779 7.22586 7.48209C8.09017 8.3464 9.17276 8.96005 10.3583 9.25765C11.5438 9.55526 12.7879 9.52568 13.9579 9.17206C13.6187 10.2874 12.9965 11.2958 12.1517 12.0992C11.307 12.9025 10.2686 13.4734 9.13774 13.7563C8.00684 14.0391 6.82196 14.0242 5.69851 13.7131C4.57506 13.402 3.55133 12.8052 2.72703 11.9809C1.90273 11.1566 1.30596 10.1329 0.994838 9.00945C0.683718 7.88599 0.668854 6.70112 0.951695 5.57021C1.23454 4.43931 1.80544 3.40093 2.6088 2.55622C3.41216 1.7115 4.4206 1.08923 5.53589 0.750031Z"
    fill="currentColor"
  />
</svg>