<svg xmlns="http://www.w3.org/2000/svg" width="24" height="25" viewBox="0 0 24 25" fill="none">
  <path d="M22.1205 6.16213C23.3453 8.31329 23.3582 10.6248 22.1494 11.3251C20.9406 12.0254 18.9678 10.8492 17.743 8.69807C16.5182 6.54691 16.5053 4.23536 17.7141 3.53508C18.9229 2.8348 20.8958 4.01097 22.1205 6.16213Z" fill="#FF2670"/>
  <path d="M0.939868 6.16213C-0.284911 8.31329 -0.297849 10.6248 0.91097 11.3251C2.11979 12.0254 4.09261 10.8492 5.31739 8.69807C6.54217 6.54691 6.55511 4.23536 5.34629 3.53508C4.13747 2.8348 2.16465 4.01097 0.939868 6.16213Z" fill="#FF2670"/>
  <path d="M22.1507 18.4895C20.9377 20.6475 18.9713 21.8346 17.7587 21.141C16.5461 20.4475 16.5464 18.1359 17.7594 15.9779C18.9724 13.82 20.9388 12.6329 22.1514 13.3265C23.364 14.02 23.3637 16.3316 22.1507 18.4895Z" fill="#FF2670"/>
  <path d="M0.909972 18.4895C2.12299 20.6475 4.08936 21.8346 5.30198 21.141C6.51461 20.4475 6.51429 18.1359 5.30127 15.9779C4.08825 13.82 2.12188 12.6329 0.909259 13.3265C-0.303365 14.02 -0.303045 16.3316 0.909972 18.4895Z" fill="#FF2670"/>
  <path d="M11.4971 24.6992C9.03802 24.6651 7.06009 23.4977 7.07925 22.0918C7.0984 20.6858 9.10738 19.5736 11.5664 19.6077C14.0255 19.6418 16.0034 20.8092 15.9843 22.2152C15.9651 23.6212 13.9561 24.7333 11.4971 24.6992Z" fill="#FF2670"/>
  <path d="M11.4971 5.0923C9.03802 5.05821 7.06009 3.8908 7.07925 2.48481C7.0984 1.07882 9.10738 -0.0333235 11.5664 0.000763074C14.0255 0.0348496 16.0034 1.20226 15.9843 2.60825C15.9651 4.01424 13.9561 5.12638 11.4971 5.0923Z" fill="#FF2670"/>
</svg>