<svg width="1224" height="775" viewBox="0 0 1224 775" fill="none" xmlns="http://www.w3.org/2000/svg">
<ellipse cx="17.0498" cy="121.434" rx="17.0498" ry="121.434" transform="matrix(0.784741 0.619823 -0.62066 0.784079 819.003 46.4668)" fill="#A80950"/>
<ellipse cx="51.577" cy="120.348" rx="51.577" ry="120.348" transform="matrix(0.572862 0.819652 -0.820242 0.572016 961.572 85.3628)" fill="#A80950"/>
<ellipse cx="69.1279" cy="122.047" rx="69.1279" ry="122.047" transform="matrix(0.273794 0.961788 -0.961956 0.273206 1095.77 160.321)" fill="#8F0C4A"/>
<ellipse cx="68.7313" cy="120.663" rx="68.7313" ry="120.663" transform="matrix(0.106168 0.994348 -0.994379 0.10588 1177.91 256.753)" fill="#A80950"/>
<ellipse cx="70.4525" cy="120.652" rx="70.4525" ry="120.652" transform="matrix(-0.3161 0.948726 -0.948896 -0.31559 1224 389.758)" fill="#C80858"/>
<ellipse cx="58.6077" cy="122.529" rx="58.6077" ry="122.529" transform="matrix(-0.579686 0.81484 -0.815356 -0.57896 1197.45 519.91)" fill="#ED1166"/>
<ellipse cx="41.6493" cy="122.498" rx="41.6493" ry="122.498" transform="matrix(-0.762745 0.646699 -0.64741 -0.762142 1107.14 630.131)" fill="#FF2670"/>
<ellipse cx="14.3102" cy="123.116" rx="14.3102" ry="123.116" transform="matrix(-0.905818 0.423666 -0.424309 -0.905517 953.949 720.417)" fill="#FF2670"/>
<ellipse cx="18.1675" cy="122.333" rx="18.1675" ry="122.333" transform="matrix(-0.946707 0.322097 -0.322616 -0.94653 812.074 754.377)" fill="#C80858"/>
<ellipse cx="37.3462" cy="121.552" rx="37.3462" ry="121.552" transform="matrix(-0.963537 0.267575 -0.268011 -0.963416 673.617 754.495)" fill="#C80858"/>
<ellipse cx="35.4879" cy="122.185" rx="35.4879" ry="122.185" transform="matrix(0.890101 0.455763 0.456435 -0.889757 521.305 223.566)" fill="#FF2670"/>
<ellipse cx="58.0374" cy="121.836" rx="58.0374" ry="121.836" transform="matrix(0.944055 0.329787 0.330317 -0.94387 364.491 230.476)" fill="#FF2670"/>
<ellipse cx="110.419" cy="120.793" rx="110.419" ry="120.793" transform="matrix(0.981277 0.192599 0.192906 -0.981217 194.703 261.183)" fill="#ED1166"/>
<path fill-rule="evenodd" clip-rule="evenodd" d="M357.925 278.095C382.109 215.722 369.527 148.293 321.891 112.402C298.743 94.962 270.705 87.5194 241.869 89.1091C230.391 104.184 221.989 122.352 218.004 142.62C205.135 208.079 243.214 270.665 303.055 282.411C321.905 286.11 340.665 284.324 357.925 278.095Z" fill="#C80858"/>
<ellipse cx="118.312" cy="120.789" rx="118.312" ry="120.789" transform="matrix(0.997201 0.0747728 0.0748507 -0.997195 94.1282 324.74)" fill="#ED1166"/>
<ellipse cx="121.423" cy="121.992" rx="121.423" ry="121.992" transform="matrix(0.997201 0.0747728 0.0748507 -0.997195 20.0161 394.852)" fill="#C80858"/>
<ellipse cx="118.949" cy="121.992" rx="118.949" ry="121.992" transform="matrix(0.997201 0.0747728 0.0748507 -0.997195 0 476.211)" fill="#A80950"/>
<ellipse cx="113.849" cy="120.714" rx="113.849" ry="120.714" transform="matrix(0.987167 -0.159693 -0.160084 -0.987103 58.0342 581.515)" fill="#8F0C4A"/>
<ellipse cx="96.6119" cy="120.711" rx="96.6119" ry="120.711" transform="matrix(0.999074 -0.0430335 -0.0431953 -0.999067 127.452 643.09)" fill="#A80950"/>
<ellipse cx="79.7566" cy="120.712" rx="79.7566" ry="120.712" transform="matrix(0.995255 -0.0972975 -0.0975683 -0.995229 255.673 709.25)" fill="#C80858"/>
<ellipse cx="59.5089" cy="121.546" rx="59.5089" ry="121.546" transform="matrix(0.983579 -0.180476 -0.180906 -0.9835 435.412 757.02)" fill="#C80858"/>
</svg>
